<svg width="25" height="25" viewBox="0 0 25 25" fill="none" xmlns="http://www.w3.org/2000/svg">
<path d="M13.5417 7.29167H11.4583V11.4583H7.29166V13.5417H11.4583V17.7083H13.5417V13.5417H17.7083V11.4583H13.5417V7.29167Z" fill="white"/>
<path d="M12.5 2.08333C6.75623 2.08333 2.08331 6.75625 2.08331 12.5C2.08331 18.2437 6.75623 22.9167 12.5 22.9167C18.2437 22.9167 22.9166 18.2437 22.9166 12.5C22.9166 6.75625 18.2437 2.08333 12.5 2.08333ZM12.5 20.8333C7.90519 20.8333 4.16665 17.0948 4.16665 12.5C4.16665 7.9052 7.90519 4.16666 12.5 4.16666C17.0948 4.16666 20.8333 7.9052 20.8333 12.5C20.8333 17.0948 17.0948 20.8333 12.5 20.8333Z" fill="white"/>
</svg>
