<svg width="66" height="33" viewBox="0 0 66 33" fill="none" xmlns="http://www.w3.org/2000/svg">
<path d="M56.5667 31.9303H51.5755L42.3905 6.622H46.8813L52.4363 23.0863C52.6425 23.7215 53.187 25.5612 54.0477 28.6192L54.8645 25.8775L55.772 23.111L61.5305 6.6H65.9993L56.5667 31.9303ZM41.8708 31.7488C40.4824 32.1314 39.0484 32.3229 37.6083 32.318C34.2257 32.318 32.5483 30.4122 32.5483 26.5787V9.6855H29.625V6.622H32.7078V2.63175L36.7668 0.97625V6.64675H41.461V9.7075H36.7943V25.6712C36.7943 26.8977 36.9978 27.7338 37.3828 28.2343C37.7678 28.7348 38.4718 28.9603 39.4453 28.9603C40.0145 28.9603 40.8065 28.8475 41.8735 28.644L41.8708 31.7488ZM21.8233 17.0555C21.87 21.9065 26.0858 23.54 26.1325 23.562C26.0858 23.6775 25.4505 25.8775 23.9105 28.1215C22.5713 30.074 21.188 32.021 18.988 32.0677C16.8348 32.1117 16.1555 30.7972 13.6805 30.7972C11.233 30.7972 10.463 32.021 8.41975 32.1118C6.33525 32.1805 4.72375 29.9805 3.36525 28.0307C0.620752 24.0405 -1.4885 16.7612 1.34675 11.8608C2.74925 9.41325 5.26825 7.8705 7.99075 7.84575C10.0533 7.80175 12.0278 9.25375 13.2983 9.25375C14.566 9.25375 16.9475 7.5295 19.4418 7.77975C20.4868 7.82375 23.4348 8.2115 25.3158 10.9533C25.1563 11.044 21.8013 12.9965 21.8233 17.0555ZM17.7863 5.126C18.8973 3.76475 19.67 1.881 19.4638 0C17.855 0.06875 15.9053 1.067 14.7255 2.42825C13.6805 3.63 12.773 5.55775 13.0233 7.39475C14.8163 7.53225 16.6753 6.46525 17.7863 5.126Z" fill="white"/>
</svg>
