<svg width="27" height="24" viewBox="0 0 27 24" fill="none" xmlns="http://www.w3.org/2000/svg">
<path d="M13.2975 2.07733C11.8447 0.741472 9.94311 6.20714e-05 7.9695 0C6.92489 0.0010876 5.8908 0.208746 4.92675 0.611025C3.9627 1.0133 3.08772 1.60226 2.35217 2.344C-0.785166 5.49467 -0.783833 10.4227 2.35483 13.56L12.1308 23.336C12.3575 23.7347 12.7948 23.992 13.2975 23.992C13.5039 23.99 13.707 23.9396 13.8903 23.8449C14.0737 23.7502 14.2324 23.6138 14.3535 23.4467L24.2402 13.56C27.3788 10.4213 27.3788 5.49467 24.2375 2.33867C23.5023 1.59829 22.628 1.01053 21.6649 0.609178C20.7018 0.207826 19.6689 0.000799475 18.6255 0C16.6519 0.000322612 14.7504 0.741697 13.2975 2.07733ZM22.3522 4.224C24.4362 6.31867 24.4375 9.59067 22.3548 11.6747L13.2975 20.732L4.24017 11.6747C2.1575 9.59067 2.15883 6.31867 4.2375 4.22933C5.25083 3.22133 6.57617 2.66667 7.9695 2.66667C9.36283 2.66667 10.6828 3.22133 11.6882 4.22667L12.3548 4.89333C12.4786 5.01726 12.6255 5.11558 12.7872 5.18266C12.949 5.24974 13.1224 5.28427 13.2975 5.28427C13.4726 5.28427 13.646 5.24974 13.8078 5.18266C13.9695 5.11558 14.1165 5.01726 14.2402 4.89333L14.9068 4.22667C16.9228 2.21467 20.3388 2.22 22.3522 4.224Z" fill="white"/>
</svg>
