<svg width="28" height="28" viewBox="0 0 28 28" fill="none" xmlns="http://www.w3.org/2000/svg">
<path d="M21.9767 22.9665C21.045 21.733 19.8397 20.7326 18.4556 20.0443C17.0715 19.3559 15.5465 18.9984 14.0007 18.9998C12.4549 18.9984 10.9298 19.3559 9.54576 20.0443C8.16167 20.7326 6.95632 21.733 6.02467 22.9665M21.9767 22.9665C23.7947 21.3494 25.0768 19.2179 25.6556 16.8546C26.2343 14.4913 26.081 12.0079 25.216 9.73376C24.3509 7.45962 22.815 5.50216 20.8119 4.12099C18.8088 2.73981 16.4331 2.00018 14 2.00018C11.5669 2.00018 9.19125 2.73981 7.18814 4.12099C5.18504 5.50216 3.64911 7.45962 2.78405 9.73376C1.91899 12.0079 1.76567 14.4913 2.34443 16.8546C2.92318 19.2179 4.20667 21.3494 6.02467 22.9665M21.9767 22.9665C19.782 24.924 16.9415 26.004 14.0007 25.9998C11.0594 26.0043 8.21965 24.9243 6.02467 22.9665M18.0007 10.9998C18.0007 12.0607 17.5792 13.0781 16.8291 13.8282C16.079 14.5784 15.0615 14.9998 14.0007 14.9998C12.9398 14.9998 11.9224 14.5784 11.1722 13.8282C10.4221 13.0781 10.0007 12.0607 10.0007 10.9998C10.0007 9.93893 10.4221 8.92151 11.1722 8.17136C11.9224 7.42122 12.9398 6.99979 14.0007 6.99979C15.0615 6.99979 16.079 7.42122 16.8291 8.17136C17.5792 8.92151 18.0007 9.93893 18.0007 10.9998Z" stroke="white" stroke-width="2.5" stroke-linecap="round" stroke-linejoin="round"/>
</svg>
