<svg width="147" height="29" viewBox="0 0 147 29" fill="none" xmlns="http://www.w3.org/2000/svg">
<path d="M11.0581 16.9684C10.6299 16.3804 10.1761 15.899 10.1761 14.8014V11.16C10.1761 9.61471 10.2857 8.19554 9.14707 7.13224C8.24915 6.26984 6.76323 5.96666 5.62398 5.96666C3.39754 5.96666 0.915075 6.79965 0.392 9.54917C0.338713 9.84072 0.550025 9.99507 0.742962 10.0392L3.01105 10.2829C3.22236 10.2744 3.37671 10.0637 3.4153 9.85236C3.6113 8.90666 4.4051 8.4485 5.29751 8.4485C5.77894 8.4485 6.3259 8.62736 6.60826 9.05488C6.93779 9.53692 6.89369 10.1966 6.89369 10.7527V11.0559C5.53761 11.2078 3.76381 11.3089 2.4941 11.8675C1.02839 12.5008 0 13.7907 0 15.6907C0 18.1193 1.5337 19.3351 3.50166 19.3351C5.16644 19.3351 6.07294 18.9431 7.35735 17.6348C7.78242 18.2503 7.92207 18.5505 8.69872 19.1954C8.87329 19.2873 9.09624 19.2787 9.2512 19.1391L11.0519 17.5931C11.243 17.4357 11.2069 17.1828 11.0581 16.9684ZM6.89307 13.4373C6.89307 14.3499 6.91451 15.1082 6.45636 15.9198C6.08519 16.5764 5.49351 16.9806 4.8363 16.9806C3.93899 16.9806 3.4153 16.2971 3.4153 15.2865C3.4153 13.2915 5.20196 12.932 6.89369 12.932L6.89307 13.4373ZM41.7223 16.969C41.2972 16.3804 40.8397 15.899 40.8397 14.8014V11.16C40.8397 9.61471 40.9499 8.19554 39.8107 7.13224C38.9133 6.26984 37.4268 5.96666 36.2882 5.96666C34.0611 5.96666 31.5793 6.79965 31.0593 9.54917C31.0023 9.84072 31.2167 9.99507 31.4072 10.0392L33.6753 10.2829C33.886 10.2744 34.0403 10.0637 34.0795 9.85236C34.2755 8.90666 35.0693 8.4485 35.9611 8.4485C36.4425 8.4485 36.9901 8.62736 37.2719 9.05488C37.602 9.53692 37.5573 10.1966 37.5573 10.7527V11.0559C36.2018 11.2078 34.4274 11.3089 33.1608 11.8675C31.6926 12.5008 30.6642 13.7907 30.6642 15.6907C30.6642 18.1193 32.1979 19.3351 34.1659 19.3351C35.83 19.3351 36.7396 18.9431 38.0246 17.6348C38.4466 18.2503 38.5857 18.5505 39.3648 19.1954C39.4512 19.2435 39.5503 19.2639 39.6486 19.2538C39.747 19.2437 39.8399 19.2037 39.9148 19.1391L39.9209 19.1452C40.3907 18.7287 41.2378 17.9919 41.7155 17.5931C41.9066 17.4357 41.8742 17.1834 41.7223 16.969ZM37.1206 15.9198C36.7488 16.5764 36.1577 16.9806 35.4999 16.9806C34.6026 16.9806 34.0789 16.2971 34.0789 15.2865C34.0789 13.2915 35.8662 12.932 37.5579 12.932V13.4373C37.5579 14.3499 37.5812 15.1082 37.1206 15.9198ZM68.7256 19.1703H66.3944C66.2828 19.1652 66.1774 19.1177 66.0996 19.0376C66.0217 18.9575 65.9773 18.8508 65.9754 18.7391L65.9711 6.72922C65.9907 6.50933 66.1849 6.33722 66.4207 6.33722H68.5902C68.6864 6.34053 68.7789 6.37499 68.8538 6.43541C68.9287 6.49584 68.9819 6.57895 69.0055 6.67226V8.50914H69.0502C69.7056 6.86642 70.6219 6.08364 72.2376 6.08364C73.2856 6.08364 74.3122 6.46217 74.9676 7.49852C75.5788 8.45831 75.5788 10.0747 75.5788 11.2372V18.7924C75.5525 19.0049 75.3614 19.1703 75.1305 19.1703H72.7852C72.6827 19.1657 72.5849 19.1254 72.5089 19.0564C72.4329 18.9874 72.3833 18.894 72.3687 18.7924V12.2736C72.3687 10.9598 72.5218 9.03956 70.9061 9.03956C70.3383 9.03956 69.8146 9.4187 69.5524 9.99935C69.2247 10.7325 69.1806 11.4651 69.1806 12.2736V18.7379C69.1768 18.8553 69.1269 18.9665 69.0418 19.0474C68.9566 19.1283 68.843 19.1725 68.7256 19.1703ZM58.8735 6.08364C62.3452 6.08364 64.2225 9.06529 64.2225 12.8548C64.2225 16.5176 62.1492 19.4233 58.8735 19.4233C55.4674 19.4233 53.6109 16.4416 53.6109 12.728C53.6109 8.98934 55.4888 6.08364 58.8735 6.08364ZM58.8949 8.53487C57.1695 8.53487 57.0611 10.8838 57.0611 12.3489C57.0611 13.814 57.0391 16.9469 58.8741 16.9469C60.6859 16.9469 60.7729 14.4204 60.7729 12.8799C60.7729 11.8699 60.7294 10.6566 60.4237 9.69678C60.1616 8.86256 59.6367 8.53487 58.8949 8.53487ZM15.6402 19.1703H13.3011C13.1954 19.1656 13.0951 19.123 13.0183 19.0503C12.9414 18.9777 12.8933 18.8798 12.8827 18.7746L12.8846 6.76964C12.8846 6.52893 13.0867 6.33722 13.3366 6.33722H15.5146C15.7425 6.34763 15.925 6.52097 15.9397 6.73963V8.30763H15.9832C16.551 6.79108 17.621 6.08426 19.0622 6.08426C20.5249 6.08426 21.4424 6.79108 22.0965 8.30763C22.6649 6.79108 23.953 6.08426 25.3287 6.08426C26.3118 6.08426 27.3812 6.4885 28.0366 7.39745C28.7789 8.40808 28.6264 9.87318 28.6264 11.1619L28.624 18.7385C28.624 18.9774 28.4218 19.1703 28.1725 19.1703H25.8371C25.7252 19.1658 25.6193 19.1186 25.5412 19.0384C25.463 18.9582 25.4185 18.8511 25.4169 18.7391V12.374C25.4169 11.8693 25.4598 10.6063 25.3502 10.1261C25.1762 9.31764 24.6519 9.08979 23.9757 9.08979C23.4073 9.08979 22.8181 9.46954 22.5774 10.0747C22.3373 10.6817 22.3593 11.6917 22.3593 12.374V18.7379C22.3593 18.978 22.1572 19.1703 21.9079 19.1703H19.5712C19.4595 19.1655 19.3538 19.1182 19.2758 19.038C19.1978 18.9579 19.1534 18.8509 19.1516 18.7391L19.1492 12.374C19.1492 11.0357 19.3673 9.06529 17.7086 9.06529C16.0273 9.06529 16.0928 10.9849 16.0928 12.374L16.0916 18.7379C16.0916 18.978 15.8895 19.1703 15.6402 19.1703ZM43.6872 8.45524V6.74024C43.6857 6.68272 43.6959 6.62549 43.7172 6.57204C43.7385 6.5186 43.7705 6.47005 43.8112 6.42936C43.8519 6.38868 43.9004 6.3567 43.9539 6.33538C44.0073 6.31406 44.0645 6.30385 44.1221 6.30537H51.8108C52.057 6.30537 52.2542 6.48361 52.2542 6.73779V8.20902C52.2524 8.45586 52.0441 8.77803 51.6754 9.28886L47.6929 14.9753C49.1709 14.941 50.7352 15.1627 52.0784 15.9173C52.381 16.0876 52.4625 16.34 52.4863 16.5868V18.4176C52.4863 18.6693 52.2101 18.9615 51.9198 18.8096C49.5537 17.5699 46.4128 17.4345 43.7962 18.8249C43.5285 18.967 43.2486 18.6791 43.2486 18.4267V16.6872C43.2486 16.4086 43.2541 15.932 43.5347 15.5076L48.1492 8.88767H44.1312C43.8862 8.88767 43.689 8.71249 43.6872 8.45524ZM48.6919 21.6932C48.1303 20.9741 44.9802 21.3527 43.5641 21.5217C43.1353 21.5732 43.0686 21.1989 43.4544 20.9276C45.9687 19.1624 50.0872 19.672 50.5662 20.263C51.0482 20.859 50.4394 24.9885 48.0843 26.9595C47.7217 27.2621 47.3769 27.1004 47.538 26.7004C48.0678 25.3768 49.2542 22.4129 48.6919 21.6932ZM46.8648 23.7794C42.4732 27.0195 36.1075 28.7437 30.625 28.7437C22.9424 28.7437 16.023 25.9029 10.7873 21.1763C10.377 20.8045 10.7432 20.2979 11.2375 20.5852C16.886 23.8719 23.8722 25.8515 31.0862 25.8515C35.9538 25.8515 41.3033 24.8415 46.2266 22.7534C46.9683 22.4386 47.5913 23.2428 46.8648 23.7794ZM141.984 19.5348C139.889 19.5348 138.282 18.9602 137.158 17.8118C136.034 16.6634 135.474 15.017 135.474 12.872C135.474 10.6768 136.047 8.95382 137.196 7.70432C138.344 6.45482 139.94 5.82946 141.984 5.82946C143.555 5.82946 144.783 6.20921 145.67 6.96932C146.557 7.72943 147 8.7425 147 10.0092C147 11.2758 146.522 12.235 145.569 12.8842C144.614 13.5353 143.209 13.8599 141.35 13.8599C140.389 13.8599 139.552 13.7675 138.843 13.5813C138.944 14.7125 139.286 15.5235 139.869 16.0129C140.452 16.5029 141.334 16.7479 142.516 16.7479C142.989 16.7479 143.449 16.7185 143.896 16.6591C144.344 16.6003 144.965 16.4692 145.758 16.2671C145.848 16.2368 145.942 16.2194 146.037 16.2156C146.324 16.2156 146.468 16.4104 146.468 16.7987V17.9637C146.468 18.2338 146.43 18.4243 146.354 18.5333C146.278 18.6436 146.13 18.741 145.91 18.8249C144.677 19.2977 143.368 19.5348 141.984 19.5348ZM141.148 11.5802C142.009 11.5802 142.634 11.4491 143.022 11.1876C143.411 10.9255 143.606 10.5243 143.606 9.98404C143.606 8.91952 142.972 8.38787 141.706 8.38787C140.084 8.38787 139.147 9.38502 138.894 11.3769C139.569 11.5122 140.321 11.5802 141.148 11.5802ZM114.093 19.155C113.874 19.155 113.712 19.1048 113.612 19.0031C113.51 18.902 113.46 18.7416 113.46 18.5217V6.84375C113.46 6.60672 113.51 6.44257 113.612 6.34947C113.712 6.25698 113.874 6.21043 114.093 6.21043H115.917C116.305 6.21043 116.542 6.39602 116.627 6.76781L116.829 7.45136C117.724 6.86029 118.53 6.44257 119.248 6.19757C119.965 5.95257 120.705 5.83007 121.465 5.83007C122.984 5.83007 124.057 6.37029 124.682 7.45136C125.544 6.87744 126.354 6.46339 127.115 6.21043C127.874 5.95685 128.659 5.83068 129.47 5.83068C130.652 5.83068 131.568 6.15898 132.219 6.81803C132.868 7.47708 133.194 8.39828 133.194 9.57918V18.5217C133.194 18.7416 133.147 18.9014 133.055 19.0031C132.961 19.1048 132.797 19.155 132.56 19.155H130.129C129.909 19.155 129.749 19.1048 129.648 19.0031C129.546 18.902 129.495 18.7416 129.495 18.5217V10.3901C129.495 9.24169 128.98 8.66717 127.95 8.66717C127.038 8.66717 126.117 8.88705 125.189 9.3256V18.5217C125.189 18.7416 125.142 18.9014 125.049 19.0031C124.956 19.1048 124.792 19.155 124.556 19.155H122.124C121.903 19.155 121.744 19.1048 121.642 19.0031C121.541 18.902 121.49 18.7416 121.49 18.5217V10.3901C121.49 9.24169 120.974 8.66717 119.945 8.66717C118.999 8.66717 118.07 8.89563 117.158 9.35072V18.5217C117.158 18.7416 117.111 18.9014 117.019 19.0031C116.926 19.1048 116.761 19.155 116.525 19.155H114.093ZM108.474 4.20878C107.832 4.20878 107.318 4.03115 106.93 3.67652C106.541 3.32249 106.347 2.84107 106.347 2.23285C106.347 1.62464 106.541 1.14383 106.93 0.789194C107.318 0.433944 107.832 0.256927 108.475 0.256927C109.116 0.256927 109.631 0.434557 110.02 0.789194C110.408 1.14383 110.603 1.62464 110.603 2.23285C110.603 2.84107 110.408 3.32249 110.02 3.67652C109.631 4.03177 109.116 4.20878 108.474 4.20878ZM107.259 19.155C107.039 19.155 106.879 19.1042 106.777 19.0025C106.675 18.902 106.625 18.7416 106.625 18.5217V6.84375C106.625 6.60733 106.675 6.44257 106.777 6.34947C106.878 6.25698 107.039 6.21043 107.259 6.21043H109.69C109.927 6.21043 110.091 6.25698 110.184 6.34947C110.277 6.44257 110.324 6.60672 110.324 6.84375V18.5217C110.324 18.7422 110.277 18.9014 110.184 19.0025C110.091 19.1042 109.927 19.1556 109.69 19.1556L107.259 19.155ZM97.1358 19.155C96.9159 19.155 96.7548 19.1048 96.6543 19.0031C96.5527 18.902 96.5024 18.7416 96.5024 18.5217V6.84375C96.5024 6.60672 96.5527 6.44257 96.6543 6.34947C96.7548 6.25698 96.9159 6.21043 97.1358 6.21043H98.9592C99.3475 6.21043 99.5839 6.39602 99.6684 6.76781L99.998 8.13552C100.674 7.39194 101.311 6.86458 101.911 6.55221C102.501 6.24223 103.157 6.08136 103.824 6.08364H104.178C104.414 6.08364 104.583 6.13019 104.684 6.22268C104.786 6.31578 104.836 6.47993 104.836 6.71696V8.84479C104.836 9.06407 104.79 9.22454 104.697 9.3256C104.605 9.42728 104.44 9.47873 104.203 9.47873C104.051 9.47678 103.899 9.468 103.747 9.45239C103.511 9.43399 103.274 9.42561 103.038 9.42728C102.649 9.42728 102.177 9.4824 101.619 9.59204C101.062 9.70229 100.589 9.84133 100.201 10.0104V18.5217C100.201 18.7416 100.154 18.9014 100.062 19.0031C99.968 19.1048 99.8032 19.155 99.5674 19.155H97.1358ZM81.9641 24.3735C81.7449 24.3735 81.5844 24.3263 81.4827 24.2345C81.3816 24.1408 81.3308 23.9772 81.3308 23.7402V6.84375C81.3308 6.60733 81.3816 6.44257 81.4827 6.34947C81.5844 6.25698 81.7449 6.21043 81.9641 6.21043H83.7882C84.1765 6.21043 84.4129 6.39663 84.4968 6.76781L84.6744 7.42624C85.1816 6.93624 85.7935 6.54853 86.5113 6.26066C87.2075 5.97788 87.9515 5.83169 88.7029 5.83007C90.3401 5.83007 91.6367 6.43031 92.591 7.62898C93.5453 8.82825 94.0224 10.4495 94.0224 12.4922C94.0224 13.8949 93.786 15.1186 93.3138 16.1654C92.8409 17.2128 92.1984 18.0194 91.3881 18.5848C90.5771 19.1513 89.6486 19.4337 88.6018 19.4337C87.9292 19.4371 87.261 19.3256 86.6259 19.1042C86.0005 18.8849 85.4682 18.5811 85.0297 18.1922V23.7402C85.0297 23.9766 84.9832 24.1408 84.8907 24.2345C84.797 24.3263 84.6328 24.3735 84.3964 24.3735H81.9641ZM87.5116 16.6468C88.4579 16.6468 89.1543 16.3265 89.602 15.6852C90.0491 15.0433 90.2739 14.0296 90.2739 12.6447C90.2739 11.2433 90.0534 10.2217 89.6149 9.57918C89.1751 8.93728 88.4744 8.61694 87.5116 8.61694C86.6377 8.616 85.7799 8.85224 85.0297 9.30049V15.9633C85.772 16.419 86.6002 16.6468 87.5116 16.6468Z" fill="white"/>
</svg>
