<svg width="150" height="28" viewBox="0 0 150 28" fill="none" xmlns="http://www.w3.org/2000/svg">
<path d="M28.6719 10.4141L18.5 9.33984L14.3359 0L10.1719 9.33984L0 10.4141L7.59766 17.2617L5.47656 27.2656L14.3359 22.1562L23.1953 27.2656L21.0742 17.2617L28.6719 10.4141Z" fill="#603CEE"/>
<path d="M62.3438 10.4141L52.1719 9.33984L48.0078 0L43.8438 9.33984L33.6719 10.4141L41.2695 17.2617L39.1484 27.2656L48.0078 22.1562L56.8672 27.2656L54.7461 17.2617L62.3438 10.4141Z" fill="#603CEE"/>
<path d="M96.0156 10.4141L85.8438 9.33984L81.6797 0L77.5156 9.33984L67.3438 10.4141L74.9414 17.2617L72.8203 27.2656L81.6797 22.1562L90.5391 27.2656L88.418 17.2617L96.0156 10.4141Z" fill="#603CEE"/>
<path d="M129.688 10.4141L119.516 9.33984L115.352 0L111.188 9.33984L101.016 10.4141L108.613 17.2617L106.492 27.2656L115.352 22.1562L124.211 27.2656L122.09 17.2617L129.688 10.4141Z" fill="#603CEE"/>
<path d="M149.023 0L144.859 9.33984L134.688 10.4141L142.285 17.2617L140.164 27.2656L149.023 22.1562V0Z" fill="#603CEE"/>
</svg>
